solid shape, STL ascii file, created with Open CASCADE Technology
 facet normal 0.000000000000e+000 0.000000000000e+000 -1.000000000000e+000
   outer loop
     vertex -5.000000000000e+001 -5.000000000000e+001 -5.000000000000e+001
     vertex -5.000000000000e+001 5.000000000000e+001 -5.000000000000e+001
     vertex 5.000000000000e+001 5.000000000000e+001 -5.000000000000e+001
   endloop
     1 1
 endfacet
 facet normal 0.000000000000e+000 0.000000000000e+000 -1.000000000000e+000
   outer loop
     vertex -5.000000000000e+001 -5.000000000000e+001 -5.000000000000e+001
     vertex 5.000000000000e+001 5.000000000000e+001 -5.000000000000e+001
     vertex 5.000000000000e+001 -5.000000000000e+001 -5.000000000000e+001
   endloop
	1 2
 endfacet
 facet normal 0.000000000000e+000 0.000000000000e+000 1.000000000000e+000
   outer loop
     vertex -5.000000000000e+001 -5.000000000000e+001 5.000000000000e+001
     vertex 5.000000000000e+001 -5.000000000000e+001 5.000000000000e+001
     vertex 5.000000000000e+001 5.000000000000e+001 5.000000000000e+001
   endloop
   1 3
 endfacet
 facet normal 0.000000000000e+000 0.000000000000e+000 1.000000000000e+000
   outer loop
     vertex -5.000000000000e+001 -5.000000000000e+001 5.000000000000e+001
     vertex 5.000000000000e+001 5.000000000000e+001 5.000000000000e+001
     vertex -5.000000000000e+001 5.000000000000e+001 5.000000000000e+001
   endloop
   1 4
 endfacet
 facet normal 0.000000000000e+000 -1.000000000000e+000 0.000000000000e+000
   outer loop
     vertex 5.000000000000e+001 -5.000000000000e+001 -5.000000000000e+001
     vertex -5.000000000000e+001 -5.000000000000e+001 5.000000000000e+001
     vertex -5.000000000000e+001 -5.000000000000e+001 -5.000000000000e+001
   endloop
   1 4
 endfacet
 facet normal 0.000000000000e+000 -1.000000000000e+000 0.000000000000e+000
   outer loop
     vertex 5.000000000000e+001 -5.000000000000e+001 -5.000000000000e+001
     vertex 5.000000000000e+001 -5.000000000000e+001 5.000000000000e+001
     vertex -5.000000000000e+001 -5.000000000000e+001 5.000000000000e+001
   endloop
   1 6
 endfacet
 facet normal 1.000000000000e+000 0.000000000000e+000 0.000000000000e+000
   outer loop
     vertex 5.000000000000e+001 5.000000000000e+001 5.000000000000e+001
     vertex 5.000000000000e+001 -5.000000000000e+001 5.000000000000e+001
     vertex 5.000000000000e+001 -5.000000000000e+001 -5.000000000000e+001
   endloop
   1 7
 endfacet
 facet normal 1.000000000000e+000 0.000000000000e+000 0.000000000000e+000
   outer loop
     vertex 5.000000000000e+001 5.000000000000e+001 5.000000000000e+001
     vertex 5.000000000000e+001 -5.000000000000e+001 -5.000000000000e+001
     vertex 5.000000000000e+001 5.000000000000e+001 -5.000000000000e+001
   endloop
   1 8
 endfacet
 facet normal 0.000000000000e+000 1.000000000000e+000 0.000000000000e+000
   outer loop
     vertex 5.000000000000e+001 5.000000000000e+001 -5.000000000000e+001
     vertex -5.000000000000e+001 5.000000000000e+001 -5.000000000000e+001
     vertex -5.000000000000e+001 5.000000000000e+001 5.000000000000e+001
   endloop
   1 9
 endfacet
 facet normal 0.000000000000e+000 1.000000000000e+000 -0.000000000000e+000
   outer loop
     vertex 5.000000000000e+001 5.000000000000e+001 -5.000000000000e+001
     vertex -5.000000000000e+001 5.000000000000e+001 5.000000000000e+001
     vertex 5.000000000000e+001 5.000000000000e+001 5.000000000000e+001
   endloop
   2 0
 endfacet
 facet normal -1.000000000000e+000 0.000000000000e+000 -0.000000000000e+000
   outer loop
     vertex -5.000000000000e+001 5.000000000000e+001 5.000000000000e+001
     vertex -5.000000000000e+001 5.000000000000e+001 -5.000000000000e+001
     vertex -5.000000000000e+001 -5.000000000000e+001 -5.000000000000e+001
   endloop
   1 2
 endfacet
 facet normal -1.000000000000e+000 -0.000000000000e+000 0.000000000000e+000
   outer loop
     vertex -5.000000000000e+001 5.000000000000e+001 5.000000000000e+001
     vertex -5.000000000000e+001 -5.000000000000e+001 -5.000000000000e+001
     vertex -5.000000000000e+001 -5.000000000000e+001 5.000000000000e+001
   endloop
   2 3
 endfacet
endsolid shape